<svg width="100%" height="100%" viewBox="0 0 128 128" version="1.1" xmlns="http://www.w3.org/2000/svg">
  <path d="M64 16C37.49 16 16 37.49 16 64c0 26.51 21.49 48 48 48s48-21.49 48-48c0-26.51-21.49-48-48-48zm0 88c-22.091 0-40-17.909-40-40s17.909-40 40-40 40 17.909 40 40-17.909 40-40 40z" fill="#C4D4FF"/>
  <path d="M64 32c-17.673 0-32 14.327-32 32s14.327 32 32 32 32-14.327 32-32-14.327-32-32-32zm0 56c-13.255 0-24-10.745-24-24s10.745-24 24-24 24 10.745 24 24-10.745 24-24 24z" fill="#1155FF"/>
</svg> 